<?xml version="1.0" encoding="utf-8"?>
<svg viewBox="136.808 152.01 192.814 130.743" xmlns="http://www.w3.org/2000/svg">
  <path d="M 148.7 164.14 L 164.557 164.14 Q 177.687 164.14 183.999 168.786 Q 190.312 173.432 190.312 184.441 Q 190.312 190.501 187.989 194.541 Q 185.666 198.581 182.181 201.056 Q 178.697 203.53 174.657 204.591 Q 170.617 205.651 167.183 205.651 L 157.184 205.651 L 157.184 233.022 L 148.7 233.022 Z M 157.184 198.076 L 166.476 198.076 Q 169.91 198.076 172.687 197.42 Q 175.465 196.763 177.485 195.198 Q 179.505 193.632 180.616 190.956 Q 181.727 188.279 181.727 184.239 Q 181.727 180.199 180.565 177.725 Q 179.404 175.25 177.131 173.937 Q 174.859 172.624 171.425 172.17 Q 167.991 171.715 163.446 171.715 L 157.184 171.715 Z" style="fill: rgb(222, 229, 229); paint-order: fill; white-space: pre;"/>
  <path d="M 209.248 215.279 Q 206.824 214.673 204.198 214.168 Q 201.875 213.663 198.895 213.309 Q 195.916 212.956 192.684 212.956 Q 185.21 212.956 181.978 215.228 Q 178.746 217.501 178.746 222.248 Q 178.847 225.985 181.473 228.56 Q 184.099 231.136 188.038 233.307 Q 191.977 235.479 196.673 237.549 Q 201.37 239.62 205.309 242.296 Q 209.248 244.973 211.924 248.558 Q 214.601 252.144 214.601 257.295 Q 214.601 263.254 212.025 266.89 Q 209.45 270.526 205.511 272.546 Q 201.572 274.566 196.875 275.273 Q 192.179 275.98 187.937 275.98 Q 183.897 275.98 180.564 275.475 Q 177.231 274.97 174.807 274.364 Q 171.979 273.657 169.656 272.748 L 171.676 264.567 Q 173.999 265.577 176.625 266.284 Q 178.948 266.89 181.826 267.395 Q 184.705 267.9 187.937 267.9 Q 191.876 267.9 195.158 267.395 Q 198.441 266.89 200.865 265.779 Q 203.289 264.668 204.652 262.85 Q 206.016 261.032 206.016 258.406 Q 205.915 254.467 203.44 251.992 Q 200.966 249.518 196.875 247.245 Q 192.785 244.973 188.088 242.852 Q 183.392 240.731 179.453 238.004 Q 175.514 235.277 172.837 231.54 Q 170.161 227.803 170.161 222.248 Q 170.161 219.016 171.272 215.885 Q 172.383 212.754 175.059 210.33 Q 177.736 207.906 182.028 206.391 Q 186.321 204.876 192.684 204.876 Q 196.32 204.876 199.602 205.229 Q 202.885 205.583 205.309 205.987 Q 208.137 206.492 210.662 207.098 Z" style="fill: rgb(234, 43, 31); paint-order: fill; stroke-miterlimit: 3.73; white-space: pre;"/>
  <path d="M 195.9 181.519 Q 195.9 180.599 195.7 178.639 L 198.66 178.239 L 198.98 181.159 L 199.02 181.159 Q 199.74 180.239 200.42 179.559 Q 201.1 178.879 201.84 178.379 Q 202.58 177.879 203.26 177.879 Q 204.18 177.839 205.82 178.079 L 205.1 181.159 Q 203.78 180.919 203.26 180.959 Q 202.58 180.959 201.82 181.599 Q 201.06 182.239 200.5 182.959 Q 199.78 183.839 199.1 184.959 L 199.1 198.399 L 195.9 198.399 Z" style="fill: rgb(222, 229, 229); paint-order: fill; white-space: pre;"/>
  <path d="M 223.616 197.919 Q 222.696 198.199 221.716 198.399 Q 220.736 198.599 219.556 198.759 Q 218.376 198.919 217.096 198.919 Q 215.096 198.919 213.376 198.359 Q 211.656 197.799 210.376 196.559 Q 209.096 195.319 208.356 193.339 Q 207.616 191.359 207.616 188.479 Q 207.616 185.879 208.336 183.899 Q 209.056 181.919 210.316 180.579 Q 211.576 179.239 213.276 178.559 Q 214.976 177.879 216.976 177.879 Q 218.936 177.879 220.376 178.639 Q 221.816 179.399 222.756 180.699 Q 223.696 181.999 224.156 183.739 Q 224.616 185.479 224.616 187.399 L 224.016 189.159 L 211.096 189.159 Q 211.096 190.399 211.416 191.639 Q 211.736 192.879 212.516 193.879 Q 213.296 194.879 214.556 195.499 Q 215.816 196.119 217.696 196.119 Q 218.896 196.119 219.896 195.979 Q 220.896 195.839 221.636 195.659 Q 222.376 195.479 223.016 195.239 Z M 221.296 186.599 Q 221.296 186.319 221.176 185.359 Q 221.056 184.399 220.616 183.359 Q 220.176 182.319 219.256 181.499 Q 218.336 180.679 216.816 180.679 Q 215.136 180.679 214.056 181.379 Q 212.976 182.079 212.336 183.039 Q 211.696 183.999 211.456 184.999 Q 211.216 185.999 211.216 186.599 Z" style="fill: rgb(222, 229, 229); paint-order: fill; white-space: pre;"/>
  <path d="M 241.454 181.199 Q 240.774 181.039 239.574 180.859 Q 238.374 180.679 237.134 180.679 Q 235.334 180.679 234.194 181.399 Q 233.054 182.119 232.414 183.259 Q 231.774 184.399 231.534 185.779 Q 231.294 187.159 231.294 188.479 Q 231.294 190.519 231.814 191.979 Q 232.334 193.439 233.194 194.359 Q 234.054 195.279 235.174 195.699 Q 236.294 196.119 237.534 196.119 Q 238.374 196.119 239.154 196.019 Q 239.934 195.919 240.594 195.779 Q 241.254 195.639 241.854 195.439 L 242.494 198.119 Q 241.654 198.359 240.934 198.519 Q 240.214 198.679 239.234 198.799 Q 238.254 198.919 237.134 198.919 Q 234.934 198.919 233.214 198.359 Q 231.494 197.799 230.314 196.559 Q 229.134 195.319 228.514 193.319 Q 227.894 191.319 227.894 188.439 Q 227.894 185.639 228.674 183.619 Q 229.454 181.599 230.734 180.339 Q 232.014 179.079 233.674 178.479 Q 235.334 177.879 237.134 177.879 Q 238.094 177.879 238.994 177.979 Q 239.894 178.079 240.574 178.199 Q 241.374 178.359 242.094 178.519 Z" style="fill: rgb(222, 229, 229); paint-order: fill; white-space: pre;"/>
  <path d="M 246.45 178.239 L 249.65 177.879 L 249.65 198.399 L 246.45 198.399 Z M 245.93 172.519 Q 245.93 171.599 246.55 170.979 Q 247.17 170.359 248.09 170.359 Q 249.05 170.359 249.71 170.979 Q 250.37 171.599 250.37 172.519 Q 250.37 173.439 249.71 174.059 Q 249.05 174.679 248.09 174.679 Q 247.17 174.679 246.55 174.059 Q 245.93 173.439 245.93 172.519 Z" style="fill: rgb(222, 229, 229); paint-order: fill; white-space: pre;"/>
  <path d="M 266.28 181.559 Q 264.6 181.039 263.3 180.859 Q 262 180.679 260.92 180.679 Q 259.52 180.679 258.58 181.359 Q 257.64 182.039 257.64 183.119 Q 257.68 184.079 258.48 184.759 Q 259.28 185.439 260.34 185.979 Q 261.4 186.519 262.7 187.159 Q 264 187.799 265.14 188.599 Q 266.28 189.399 267 190.519 Q 267.72 191.639 267.76 193.199 Q 267.72 194.879 267.02 195.979 Q 266.32 197.079 265.22 197.739 Q 264.12 198.399 262.84 198.659 Q 261.56 198.919 260.44 198.919 Q 259 198.919 257.46 198.759 Q 255.92 198.599 254.16 198.079 L 254.76 195.199 Q 256.56 195.679 258.04 195.899 Q 259.52 196.119 260.48 196.119 Q 261.2 196.119 261.9 195.959 Q 262.6 195.799 263.16 195.499 Q 263.72 195.199 264.06 194.719 Q 264.4 194.239 264.4 193.639 Q 264.36 192.519 263.64 191.739 Q 262.92 190.959 261.78 190.339 Q 260.64 189.719 259.34 189.099 Q 258.04 188.479 256.9 187.659 Q 255.76 186.839 255 185.699 Q 254.24 184.559 254.24 182.879 Q 254.24 181.679 254.86 180.739 Q 255.48 179.799 256.46 179.179 Q 257.44 178.559 258.62 178.219 Q 259.8 177.879 260.92 177.879 Q 262.08 177.879 263.52 178.059 Q 264.96 178.239 266.84 178.719 Z" style="fill: rgb(222, 229, 229); paint-order: fill; white-space: pre;"/>
  <path d="M 272.076 178.239 L 275.276 177.879 L 275.276 198.399 L 272.076 198.399 Z M 271.556 172.519 Q 271.556 171.599 272.176 170.979 Q 272.796 170.359 273.716 170.359 Q 274.676 170.359 275.336 170.979 Q 275.996 171.599 275.996 172.519 Q 275.996 173.439 275.336 174.059 Q 274.676 174.679 273.716 174.679 Q 272.796 174.679 272.176 174.059 Q 271.556 173.439 271.556 172.519 Z" style="fill: rgb(222, 229, 229); paint-order: fill; white-space: pre;"/>
  <path d="M 283.319 188.439 Q 283.319 192.319 285.059 194.219 Q 286.799 196.119 289.759 196.119 Q 292.679 196.119 294.319 194.239 Q 295.959 192.359 295.959 188.599 Q 295.959 184.599 294.219 182.639 Q 292.479 180.679 289.479 180.679 Q 286.479 180.679 284.899 182.619 Q 283.319 184.559 283.319 188.439 Z M 279.919 188.399 Q 279.919 185.359 280.879 183.339 Q 281.839 181.319 283.319 180.099 Q 284.799 178.879 286.499 178.379 Q 288.199 177.879 289.719 177.879 Q 291.159 177.879 292.859 178.339 Q 294.559 178.799 295.999 179.979 Q 297.439 181.159 298.399 183.139 Q 299.359 185.119 299.359 188.159 Q 299.359 191.319 298.379 193.399 Q 297.399 195.479 295.919 196.699 Q 294.439 197.919 292.719 198.419 Q 290.999 198.919 289.519 198.919 Q 287.999 198.919 286.319 198.439 Q 284.639 197.959 283.219 196.779 Q 281.799 195.599 280.859 193.559 Q 279.919 191.519 279.919 188.399 Z" style="fill: rgb(222, 229, 229); paint-order: fill; white-space: pre;"/>
  <path d="M 304.042 182.279 Q 304.082 181.439 303.842 178.639 L 306.802 178.239 L 307.242 180.799 Q 308.442 179.999 309.622 179.399 Q 310.802 178.799 312.042 178.339 Q 313.282 177.879 314.442 177.879 Q 316.082 177.879 317.182 178.259 Q 318.282 178.639 318.962 179.519 Q 319.642 180.399 319.942 181.839 Q 320.242 183.279 320.242 185.439 L 320.242 198.399 L 317.042 198.399 L 317.042 185.799 Q 317.042 184.599 317.002 183.659 Q 316.962 182.719 316.662 182.059 Q 316.362 181.399 315.742 181.039 Q 315.122 180.679 314.002 180.679 Q 312.962 180.679 311.802 181.139 Q 310.642 181.599 309.522 182.199 Q 308.402 182.799 307.242 183.599 L 307.242 198.399 L 304.042 198.399 Z" style="fill: rgb(222, 229, 229); paint-order: fill; white-space: pre;"/>
  <path d="M 218.771 222.187 Q 218.771 220.747 218.571 217.907 L 221.531 217.507 L 221.891 219.667 Q 222.691 218.987 223.551 218.447 Q 224.411 217.907 225.431 217.527 Q 226.451 217.147 227.611 217.147 Q 229.251 217.147 230.711 217.707 Q 232.171 218.267 233.271 219.507 Q 234.371 220.747 235.011 222.727 Q 235.651 224.707 235.651 227.587 Q 235.651 230.507 234.791 232.527 Q 233.931 234.547 232.551 235.807 Q 231.171 237.067 229.431 237.627 Q 227.691 238.187 225.891 238.187 Q 223.971 238.147 221.971 237.707 L 221.971 246.387 L 218.771 246.787 Z M 225.891 235.387 Q 227.571 235.387 228.771 234.787 Q 229.971 234.187 230.751 233.127 Q 231.531 232.067 231.891 230.687 Q 232.251 229.307 232.251 227.747 Q 232.251 226.347 231.991 224.947 Q 231.731 223.547 231.151 222.447 Q 230.571 221.347 229.611 220.647 Q 228.651 219.947 227.251 219.947 Q 226.211 219.947 225.291 220.327 Q 224.371 220.707 223.551 221.247 Q 222.731 221.787 221.971 222.467 L 221.971 234.747 Q 222.411 234.907 222.951 235.047 Q 223.491 235.187 224.231 235.287 Q 224.971 235.387 225.891 235.387 Z" style="fill: rgb(234, 43, 31); paint-order: fill; stroke-miterlimit: 3.73; white-space: pre;"/>
  <path d="M 255.199 237.187 Q 254.279 237.467 253.299 237.667 Q 252.319 237.867 251.139 238.027 Q 249.959 238.187 248.679 238.187 Q 246.679 238.187 244.959 237.627 Q 243.239 237.067 241.959 235.827 Q 240.679 234.587 239.939 232.607 Q 239.199 230.627 239.199 227.747 Q 239.199 225.147 239.919 223.167 Q 240.639 221.187 241.899 219.847 Q 243.159 218.507 244.859 217.827 Q 246.559 217.147 248.559 217.147 Q 250.519 217.147 251.959 217.907 Q 253.399 218.667 254.339 219.967 Q 255.279 221.267 255.739 223.007 Q 256.199 224.747 256.199 226.667 L 255.599 228.427 L 242.679 228.427 Q 242.679 229.667 242.999 230.907 Q 243.319 232.147 244.099 233.147 Q 244.879 234.147 246.139 234.767 Q 247.399 235.387 249.279 235.387 Q 250.479 235.387 251.479 235.247 Q 252.479 235.107 253.219 234.927 Q 253.959 234.747 254.599 234.507 Z M 252.879 225.867 Q 252.879 225.587 252.759 224.627 Q 252.639 223.667 252.199 222.627 Q 251.759 221.587 250.839 220.767 Q 249.919 219.947 248.399 219.947 Q 246.719 219.947 245.639 220.647 Q 244.559 221.347 243.919 222.307 Q 243.279 223.267 243.039 224.267 Q 242.799 225.267 242.799 225.867 Z" style="fill: rgb(234, 43, 31); paint-order: fill; stroke-miterlimit: 3.73; white-space: pre;"/>
  <path d="M 260.558 207.707 L 263.758 207.347 L 263.758 237.667 L 260.558 237.667 Z" style="fill: rgb(234, 43, 31); paint-order: fill; stroke-miterlimit: 3.73; white-space: pre;"/>
  <path d="M 269.521 207.707 L 272.721 207.347 L 272.721 237.667 L 269.521 237.667 Z" style="fill: rgb(234, 43, 31); paint-order: fill; stroke-miterlimit: 3.73; white-space: pre;"/>
  <path d="M 278.471 217.507 L 281.671 217.147 L 281.671 237.667 L 278.471 237.667 Z M 277.951 211.787 Q 277.951 210.867 278.571 210.247 Q 279.191 209.627 280.111 209.627 Q 281.071 209.627 281.731 210.247 Q 282.391 210.867 282.391 211.787 Q 282.391 212.707 281.731 213.327 Q 281.071 213.947 280.111 213.947 Q 279.191 213.947 278.571 213.327 Q 277.951 212.707 277.951 211.787 Z" style="fill: rgb(234, 43, 31); paint-order: fill; stroke-miterlimit: 3.73; white-space: pre;"/>
  <path d="M 287.474 221.547 Q 287.514 220.707 287.274 217.907 L 290.234 217.507 L 290.674 220.067 Q 291.874 219.267 293.054 218.667 Q 294.234 218.067 295.474 217.607 Q 296.714 217.147 297.874 217.147 Q 299.514 217.147 300.614 217.527 Q 301.714 217.907 302.394 218.787 Q 303.074 219.667 303.374 221.107 Q 303.674 222.547 303.674 224.707 L 303.674 237.667 L 300.474 237.667 L 300.474 225.067 Q 300.474 223.867 300.434 222.927 Q 300.394 221.987 300.094 221.327 Q 299.794 220.667 299.174 220.307 Q 298.554 219.947 297.434 219.947 Q 296.394 219.947 295.234 220.407 Q 294.074 220.867 292.954 221.467 Q 291.834 222.067 290.674 222.867 L 290.674 237.667 L 287.474 237.667 Z" style="fill: rgb(234, 43, 31); paint-order: fill; stroke-miterlimit: 3.73; white-space: pre;"/>
  <path d="M 325.07 239.587 Q 325.07 241.067 324.75 242.467 Q 324.43 243.867 323.53 244.967 Q 322.63 246.067 321.01 246.727 Q 319.39 247.387 316.75 247.387 Q 315.07 247.347 313.83 247.187 Q 312.59 247.027 311.47 246.727 Q 310.35 246.427 309.43 246.027 L 310.27 243.227 Q 311.83 243.907 313.45 244.267 Q 315.07 244.627 316.35 244.627 Q 317.75 244.627 318.79 244.347 Q 319.83 244.067 320.53 243.407 Q 321.23 242.747 321.57 241.667 Q 321.91 240.587 321.91 238.987 L 321.91 236.067 Q 321.07 236.627 320.17 237.087 Q 319.27 237.547 318.25 237.867 Q 317.23 238.187 316.27 238.187 Q 312.55 238.187 310.39 235.567 Q 308.23 232.947 308.23 227.747 Q 308.23 224.747 309.17 222.727 Q 310.11 220.707 311.55 219.467 Q 312.99 218.227 314.71 217.687 Q 316.43 217.147 317.99 217.147 Q 320.03 217.147 321.73 217.487 Q 323.43 217.827 325.07 218.027 Z M 316.63 235.387 Q 317.51 235.387 318.43 235.067 Q 319.35 234.747 320.21 234.307 Q 321.07 233.867 321.91 233.267 L 321.91 220.507 Q 321.43 220.387 320.79 220.227 Q 320.23 220.147 319.51 220.047 Q 318.79 219.947 317.99 219.947 Q 316.31 219.947 315.11 220.547 Q 313.91 221.147 313.13 222.187 Q 312.35 223.227 311.99 224.627 Q 311.63 226.027 311.63 227.587 Q 311.63 228.987 311.93 230.387 Q 312.23 231.787 312.87 232.907 Q 313.51 234.027 314.43 234.707 Q 315.35 235.387 316.63 235.387 Z" style="fill: rgb(234, 43, 31); paint-order: fill; stroke-miterlimit: 3.73; white-space: pre;"/>
</svg>